<?xml version="1.0" standalone="no"?>
<!DOCTYPE svg PUBLIC "-//W3C//DTD SVG 20010904//EN"
 "http://www.w3.org/TR/2001/REC-SVG-20010904/DTD/svg10.dtd">
<svg version="1.0" xmlns="http://www.w3.org/2000/svg"
 width="298.000000pt" height="298.000000pt" viewBox="0 0 298.000000 298.000000"
 preserveAspectRatio="xMidYMid meet">

<g transform="translate(0.000000,298.000000) scale(0.100000,-0.100000)"
fill="#000000" stroke="none">
<path d="M650 2008 c-112 -194 -205 -357 -208 -362 -2 -4 29 20 69 54 206 174
450 294 719 356 109 25 374 53 387 41 3 -4 -3 -17 -14 -30 -11 -12 -301 -339
-643 -727 -531 -601 -620 -705 -601 -708 14 -2 34 6 50 21 14 13 435 390 936
837 501 447 923 825 940 841 l30 29 -731 0 -731 0 -203 -352z"/>
<path d="M1607 1501 c-526 -472 -960 -861 -964 -864 -3 -4 323 -6 726 -5 l733
3 202 350 c112 193 201 352 199 354 -2 3 -20 -11 -41 -31 -178 -168 -496 -328
-762 -382 -110 -22 -256 -38 -321 -34 l-56 3 643 727 c354 401 644 730 644
733 0 3 -10 5 -22 5 -16 -1 -326 -272 -981 -859z"/>
</g>
</svg>
