<?xml version="1.0" standalone="no"?>
<!DOCTYPE svg PUBLIC "-//W3C//DTD SVG 20010904//EN" "http://www.w3.org/TR/2001/REC-SVG-20010904/DTD/svg10.dtd">
<svg version="1.0" xmlns="http://www.w3.org/2000/svg" width="512.000000pt" height="512.000000pt"
    viewBox="0 0 512.000000 512.000000" preserveAspectRatio="xMidYMid meet">

    <g transform="translate(0.000000,512.000000) scale(0.100000,-0.100000)" fill="#FFFFFF" stroke="none">
        <path d="M2223 5102 c-97 -34 -171 -111 -198 -206 -8 -28 -24 -107 -35 -176
-11 -69 -25 -148 -31 -177 l-10 -51 -72 -27 c-40 -14 -118 -47 -174 -72 l-102
-46 -153 110 c-84 61 -168 118 -186 127 -78 40 -200 37 -287 -6 -23 -12 -125
-105 -236 -217 -231 -232 -244 -252 -243 -381 0 -105 10 -127 159 -334 l106
-148 -49 -112 c-28 -61 -58 -136 -67 -166 -10 -30 -22 -60 -29 -66 -6 -6 -96
-25 -201 -42 -213 -36 -270 -57 -330 -124 -21 -22 -47 -61 -59 -87 -20 -44
-21 -61 -21 -351 l0 -305 28 -57 c30 -62 84 -116 147 -148 25 -13 117 -34 243
-55 111 -19 203 -35 203 -35 1 0 12 -28 24 -62 13 -35 45 -113 73 -175 l49
-112 -116 -163 c-132 -186 -150 -227 -144 -331 6 -117 26 -146 242 -364 228
-229 259 -248 391 -247 99 0 117 9 323 156 l153 110 102 -45 c56 -25 131 -55
167 -68 36 -12 66 -23 68 -24 1 -1 18 -93 37 -203 21 -125 42 -217 55 -242 32
-63 86 -117 148 -147 l57 -28 305 0 305 0 57 28 c65 32 122 90 150 153 10 24
34 132 53 240 18 108 35 197 37 198 2 2 39 15 83 31 44 16 121 47 171 71 l92
42 153 -110 c213 -152 215 -153 324 -153 133 0 159 17 386 244 214 213 239
251 247 366 6 99 -17 150 -152 340 l-113 159 41 91 c23 49 55 127 72 173 21
61 34 84 49 87 11 3 101 18 199 35 202 33 262 56 321 122 21 22 47 61 59 87
20 44 21 61 21 351 l0 305 -28 57 c-30 61 -84 116 -145 147 -23 12 -115 33
-223 51 -101 17 -193 35 -204 39 -14 6 -31 38 -54 102 -18 52 -49 124 -67 161
-19 37 -34 73 -34 80 0 7 49 82 109 165 60 84 117 170 127 190 29 60 31 175 3
248 -20 54 -41 79 -223 261 -225 225 -255 246 -368 252 -100 6 -145 -14 -332
-148 l-167 -118 -92 43 c-51 24 -128 56 -172 71 -44 15 -84 31 -89 35 -5 4
-24 95 -42 201 -38 216 -60 274 -126 333 -85 77 -97 80 -423 82 -258 3 -296 1
-342 -15z m574 -284 c5 -7 26 -114 47 -238 20 -126 45 -240 55 -260 21 -42 67
-67 206 -110 55 -18 163 -63 241 -101 91 -45 153 -69 175 -69 44 0 79 21 283
168 92 67 176 122 185 122 22 0 341 -321 341 -343 0 -9 -61 -103 -135 -207
-138 -193 -155 -223 -155 -266 0 -13 31 -87 69 -165 38 -77 88 -198 111 -268
40 -126 57 -154 106 -179 12 -6 120 -27 240 -47 121 -20 229 -40 242 -45 22
-10 22 -10 22 -250 0 -240 0 -240 -22 -250 -13 -5 -121 -25 -240 -44 -119 -20
-227 -40 -241 -45 -35 -13 -75 -65 -88 -114 -26 -100 -66 -201 -130 -332 -39
-79 -69 -154 -69 -171 0 -43 20 -78 163 -277 70 -98 127 -186 127 -195 0 -22
-320 -342 -342 -342 -10 0 -91 53 -180 117 -220 158 -246 173 -286 173 -23 0
-84 -24 -176 -69 -78 -39 -197 -88 -265 -110 -128 -42 -153 -57 -177 -102 -7
-15 -30 -125 -49 -245 -20 -121 -40 -229 -45 -241 -10 -23 -10 -23 -250 -23
-240 0 -240 0 -250 23 -5 12 -25 120 -44 239 -20 119 -40 227 -45 241 -13 35
-65 75 -114 88 -97 25 -200 65 -324 125 -140 68 -180 76 -234 49 -16 -9 -111
-74 -211 -145 -99 -72 -188 -130 -197 -130 -22 0 -341 321 -341 343 0 10 63
106 139 213 104 145 141 205 146 235 6 37 0 54 -64 185 -40 79 -90 199 -112
267 -61 186 -49 179 -351 231 -134 24 -250 46 -256 50 -16 9 -17 482 -2 491 6
4 113 24 238 45 125 21 239 43 253 48 37 14 77 66 89 115 27 103 76 231 129
337 69 138 75 158 58 207 -7 21 -75 124 -150 230 -75 106 -137 198 -137 205 0
8 76 89 169 182 157 155 171 167 191 156 12 -7 101 -68 198 -138 181 -130 234
-157 280 -145 15 3 84 35 153 70 69 34 180 81 247 103 67 22 131 45 143 52 43
27 57 70 99 312 22 132 43 243 46 248 3 4 112 8 243 8 179 0 241 -3 248 -12z" />
        <path d="M2463 3659 c-412 -36 -776 -307 -929 -692 -98 -247 -99 -554 -4 -802
112 -289 346 -523 635 -635 186 -71 418 -90 617 -50 620 127 1007 753 843
1367 -116 436 -518 778 -950 809 -44 3 -89 6 -100 8 -11 2 -61 -1 -112 -5z
m277 -305 c302 -65 545 -309 616 -619 21 -92 21 -258 -1 -355 -23 -102 -101
-260 -169 -341 -248 -296 -678 -378 -1015 -193 -439 241 -559 813 -254 1212
76 99 169 174 288 232 175 85 345 105 535 64z" />
    </g>
</svg>